<svg xmlns="http://www.w3.org/2000/svg" viewBox="0 0 1200 750" role="img" aria-labelledby="title">
  <title id="title">Far auto matuit inainte de curatare</title>
  <defs>
    <linearGradient id="body" x1="0" x2="1">
      <stop offset="0" stop-color="#53504a"/>
      <stop offset="1" stop-color="#222"/>
    </linearGradient>
  </defs>
  <rect width="1200" height="750" fill="#2b2926"/>
  <path d="M0 472c166-145 375-218 626-218 214 0 406 49 574 147v349H0V472Z" fill="url(#body)"/>
  <path d="M225 260c143-53 319-73 529-61 121 7 223 30 306 68-57 55-134 93-231 113-170 35-369 20-604-45v-75Z" fill="#181818"/>
  <path d="M238 280c193 37 363 42 510 15 89-16 164-45 224-86 27 16 53 35 78 57-92 113-231 168-417 166-153-2-285-34-395-97v-55Z" fill="#9b8e77" opacity=".8"/>
  <path d="M271 300c197 29 352 26 466-9" fill="none" stroke="#c9b996" stroke-width="28" opacity=".48"/>
  <g fill="#b5a889" opacity=".55">
    <circle cx="390" cy="306" r="24"/>
    <circle cx="537" cy="321" r="18"/>
    <circle cx="682" cy="295" r="21"/>
    <circle cx="811" cy="252" r="16"/>
  </g>
  <path d="M84 520c236 45 475 52 717 22" fill="none" stroke="#817866" stroke-width="16" opacity=".45"/>
</svg>
