<svg xmlns="http://www.w3.org/2000/svg" viewBox="0 0 1200 750" role="img" aria-labelledby="title">
  <title id="title">Far auto curatat dupa detailing</title>
  <defs>
    <linearGradient id="body" x1="0" x2="1">
      <stop offset="0" stop-color="#f4f4f1"/>
      <stop offset=".55" stop-color="#c7cdd2"/>
      <stop offset="1" stop-color="#171717"/>
    </linearGradient>
    <linearGradient id="lamp" x1="0" x2="1">
      <stop offset="0" stop-color="#fffdf2"/>
      <stop offset=".55" stop-color="#dcefff"/>
      <stop offset="1" stop-color="#ffffff"/>
    </linearGradient>
  </defs>
  <rect width="1200" height="750" fill="#f4f4ef"/>
  <path d="M0 472c166-145 375-218 626-218 214 0 406 49 574 147v349H0V472Z" fill="url(#body)"/>
  <path d="M225 260c143-53 319-73 529-61 121 7 223 30 306 68-57 55-134 93-231 113-170 35-369 20-604-45v-75Z" fill="#101010"/>
  <path d="M238 280c193 37 363 42 510 15 89-16 164-45 224-86 27 16 53 35 78 57-92 113-231 168-417 166-153-2-285-34-395-97v-55Z" fill="url(#lamp)"/>
  <path d="M275 294c211 30 381 21 510-28" fill="none" stroke="#ffffff" stroke-width="18" opacity=".82"/>
  <path d="M322 356c171 37 326 36 466-3" fill="none" stroke="#ffffff" stroke-width="12" opacity=".56"/>
  <g fill="#ffffff" opacity=".9">
    <path d="M212 123l22 48 48 22-48 22-22 48-22-48-48-22 48-22 22-48Z"/>
    <path d="M981 182l18 38 38 18-38 18-18 38-18-38-38-18 38-18 18-38Z"/>
    <path d="M770 92l12 26 26 12-26 12-12 26-12-26-26-12 26-12 12-26Z"/>
  </g>
  <path d="M84 520c236 45 475 52 717 22" fill="none" stroke="#ffffff" stroke-width="14" opacity=".5"/>
</svg>
